# xmcd
#
# Track frame offsets: 
#        150
#        26621
#        55151
#        91735
#        122348
#        178955
#
# Disc length: 3125 seconds
#
# Revision: 0
# Processed by: cddbd v1.5.2PL0 Copyright (c) Steve Scherf et al.
# Submitted via: ExactAudioCopy v1.3
#
DISCID=430c3306
DTITLE=Layla Zoe - Retrospective Tour 2019 [Disk 2]
DYEAR=2020
DGENRE=Blues Rock
TTITLE0=Backstage Queen
TTITLE1=Weakness
TTITLE2=Bitch With The Head Of Red
TTITLE3=Ghost Train
TTITLE4=Hippie Chick
TTITLE5=I Shall Be Released
EXTD=
EXTT0=
EXTT1=
EXTT2=
EXTT3=
EXTT4=
EXTT5=
PLAYORDER=
